# xmcd
#
# Track frame offsets: 
#        150
#        11412
#        25587
#        38675
#        56812
#        72200
#        84387
#        100062
#        113637
#        127737
#
# Disc length: 1909 seconds
#
# Revision: 7
# Processed by: cddbd v1.5.2PL0 Copyright (c) Steve Scherf et al.
# Submitted via: ExactAudioCopy v0.99pb4
#
DISCID=6c07730a
DTITLE=Kris Kristofferson - Jesus Was A Capricorn
DYEAR=1988
DGENRE=Country
TTITLE0=Jesus Was A Capricorn (Owed To John Prine)
TTITLE1=Nobody Wins
TTITLE2=It Sure Was (Love) (With Rita Coolidge)
TTITLE3=Sugar Man
TTITLE4=Help Me (With Larry Gatlin)
TTITLE5=Jesse Younger
TTITLE6=Give It Time To Be Tender (With Rita Coolidge)
TTITLE7=Out Of Mind, Out Of Sight
TTITLE8=Enough For You
TTITLE9=Why Me
EXTD=(c)1991 Sony Music Special Products - Monument\n(p)1972 Monument\n
EXTD=AK 47064\nupc 07464470642
EXTT0=
EXTT1=
EXTT2=
EXTT3=
EXTT4=
EXTT5=
EXTT6=
EXTT7=
EXTT8=
EXTT9=
PLAYORDER=
